
	<svg xmlns="http://www.w3.org/2000/svg" xmlns:xlink="http://www.w3.org/1999/xlink" version="1.1" width="128" height="128" viewBox="0 0 100 100">


		<defs>
			<linearGradient id="Gradient_2" gradientUnits="userSpaceOnUse" x1="46" y1="30" x2="31" y2="3" spreadMethod="pad">
			<stop offset="0%" stop-color="#FFFFFF" stop-opacity="0"/>
			<stop offset="100%" stop-color="#FFFFFF"/>
		</linearGradient><linearGradient id="Gradient_3" gradientUnits="userSpaceOnUse" x1="50" y1="13" x2="50" y2="62" spreadMethod="pad">
			<stop offset="0%" stop-color="#FFFFFF" stop-opacity="0"/>
			<stop offset="100%" stop-color="#FFFFFF" stop-opacity="0.5"/>
		</linearGradient><linearGradient id="Gradient_4" gradientUnits="userSpaceOnUse" x1="87.3125" y1="61" x2="42" y2="-21" spreadMethod="pad">
			<stop offset="0%" stop-color="#FFFFFF" stop-opacity="0"/>
			<stop offset="100%" stop-color="#FFFFFF"/>
		</linearGradient><linearGradient id="Gradient_5" gradientUnits="userSpaceOnUse" x1="26" y1="48" x2="120" y2="48" spreadMethod="pad">
			<stop offset="0%" stop-color="#FFFFFF" stop-opacity="0"/>
			<stop offset="100%" stop-color="#FFFFFF" stop-opacity="0.5"/>
		</linearGradient><g id="background">
			<path fill="url(#background-gradient)" stroke="none" d=" M 97.85 46.4 Q 99.75 41 99.75 35.25 99.75 28.1 96.9 21.5 94.1 15.2 89.05 10.3 84 5.45 77.5 2.75 70.75 0 63.3 0 50.8 0 41 7.45 31.3 14.8 28.15 26.25 25.9 24.25 23 23.15 20.1 22.05 16.9 22.05 9.9 22.05 4.95 26.85 0 31.65 0 38.4 0 45.1 4.85 49.9 9.75 54.65 16.65 54.75 11.95 58.3 9.35 63.45 6.6 68.7 6.6 74.7 6.6 85.15 14.25 92.6 21.9 100 32.75 100 42.5 100 49.9 93.85 57.15 87.7 58.6 78.5 60.8 84.65 66.25 88.45 71.85 92.35 78.7 92.35 87.55 92.35 93.8 86.35 100 80.25 100 71.7 100 67.1 98 63 96.1 59 92.6 56.1 96.05 51.65 97.85 46.4 Z"/>
		</g><mask id="mask">
			<path fill="#FFFFFF" stroke="none" d=" M 96.9 21.5 Q 94.1 15.2 89.05 10.3 84 5.45 77.5 2.75 70.75 0 63.3 0 50.8 0 41 7.45 31.3 14.8 28.15 26.25 25.9 24.25 23 23.15 20.1 22.05 16.9 22.05 9.9 22.05 4.95 26.85 0 31.65 0 38.4 0 45.1 4.85 49.9 9.75 54.65 16.65 54.75 11.95 58.3 9.35 63.45 6.6 68.7 6.6 74.7 6.6 85.15 14.25 92.6 21.9 100 32.75 100 42.5 100 49.9 93.85 57.15 87.7 58.6 78.5 60.8 84.65 66.25 88.45 71.85 92.35 78.7 92.35 87.55 92.35 93.8 86.35 100 80.25 100 71.7 100 67.1 98 63 96.1 59 92.6 56.1 96.05 51.65 97.85 46.4 99.75 41 99.75 35.25 99.75 28.1 96.9 21.5 Z"/>
		</mask><g id="bottom-1">
			<path fill="url(#Gradient_2)" stroke="none" d=" M 85.3 9.2 L 86.75 8.3 Q 81.9 4.35 76 2.2 69.9 0 63.3 0 50.8 0 41 7.45 31.3 14.8 28.15 26.25 25.9 24.25 23 23.15 20.1 22.05 16.9 22.05 9.9 22.05 4.95 26.85 0 31.65 0 38.4 0 44.95 4.7 49.7 9.35 54.4 16.05 54.75 L 18.4 53.2 16.65 53.15 Q 10.45 53.1 6.05 48.75 1.65 44.4 1.65 38.4 1.65 32.3 6.1 27.95 10.6 23.65 16.9 23.65 19.75 23.65 22.35 24.6 24.95 25.6 27.05 27.4 L 29.05 29.15 29.75 26.65 Q 32.75 15.6 42.1 8.6 51.5 1.6 63.3 1.6 69.5 1.6 75.2 3.6 80.75 5.55 85.3 9.2 Z"/>
		</g><g id="gloss-top">
			<path fill="url(#Gradient_3)" stroke="none" d=" M 96.9 21.5 Q 94.1 15.2 89.05 10.3 84 5.45 77.5 2.75 70.75 0 63.3 0 50.8 0 41 7.45 31.3 14.8 28.15 26.25 25.9 24.25 23 23.15 20.1 22.05 16.9 22.05 10.9 22.05 6.3 25.7 1.7 29.3 0.45 34.8 10.5 41.7 24.1 45.55 38.2 49.5 53.8 49.5 66.55 49.5 78.5 46.8 89.95 44.2 99.45 39.4 99.75 37.2 99.75 35.25 99.75 28.1 96.9 21.5 Z"/>
		</g><g id="gloss-right">
			<path fill="url(#Gradient_4)" stroke="none" d=" M 96.9 21.5 Q 94.1 15.2 89.05 10.3 84 5.45 77.5 2.75 70.75 0 63.3 0 53.85 0 45.6 4.5 37.6 8.85 32.65 16.35 38.2 30.3 49 44.5 60.15 59.2 75.3 71.9 84.4 79.55 94.2 85.8 96.95 83 98.45 79.4 100 75.75 100 71.7 100 67.1 98 63 96.1 59 92.6 56.1 96.05 51.65 97.85 46.4 99.75 41 99.75 35.25 99.75 28.1 96.9 21.5 Z"/>
		</g><g id="gloss-left">
			<path fill="url(#Gradient_5)" stroke="none" d=" M 95.7 19.15 Q 91.05 10.45 82.55 5.3 73.75 0 63.3 0 50.8 0 41 7.45 31.3 14.8 28.15 26.25 25.9 24.25 23 23.15 20.1 22.05 16.9 22.05 9.9 22.05 4.95 26.85 0 31.65 0 38.4 0 45.1 4.85 49.9 9.75 54.65 16.65 54.75 11.95 58.3 9.35 63.45 6.6 68.7 6.6 74.7 6.6 81.05 9.7 86.65 12.7 92.05 17.95 95.5 36.9 86.45 54.2 71.9 68.6 59.8 79.4 45.95 89.9 32.55 95.7 19.15 M 30.05 49.5 L 29.2 49.6 29.8 48.95 30.05 49.5 Z"/>
		</g>
			
	<linearGradient id="background-gradient" x1="0" y1="0" y2="1" x2="0" >
		<stop stop-color="#F1F2F2" offset="0%"/>
		<stop stop-color="#fff459" offset="100%"/>
	</linearGradient>

			
			
			<g transform="scale(3.3333333333333335) translate(0 -0.05000019073486328)" id="picture">
    <path d="M29.7 12.6c-.2-.1-.4-.1-.5 0l-7.2 5v-.3c0-2.3-1.6-4.8-4-4.8H4.3C2 12.5 0 14.4 0 16.8v8.5c0 2.3 1.9 4.3 4.3 4.3H18c2.4 0 4-2.5 4-4.8v-.3l7.2 5c.2.1.4.1.5 0 .2-.1.3-.3.3-.4V13c0-.2-.1-.4-.3-.4zm-13.2-1.1c3 0 5.5-2.5 5.5-5.5S19.5.5 16.5.5 11 3 11 6s2.5 5.5 5.5 5.5zm-12 0C7 11.5 9 9.5 9 7S7 2.5 4.5 2.5 0 4.5 0 7s2 4.5 4.5 4.5z"/>
</g>
			
		</defs>

		

			<use xlink:href="#background" fill="url(#background-gradient)" />

		

			<g mask="url(#mask)">
				<g transform="
				        translate(
                                50 50
)
                            translate(5 0)  scale(0.44999999999999996)  
                            translate(
                                -50 -50
)">
						<use xlink:href="#picture"   />
				</g>
			</g>

		<use xlink:href="#bottom-1" />

			<use xlink:href="#gloss-top" opacity="1" />


	</svg>
